<svg
  xmlns="http://www.w3.org/2000/svg"
  version="1.1"
  xmlns:xlink="http://www.w3.org/1999/xlink"
  xmlns:svgjs="http://svgjs.dev/svgjs"
  viewBox="0 0 1500 800"
>
  <g transform="matrix(1,0,0,1)">
    <svg
      viewBox="75 0 75 300"
      data-background-color="#000000"
      preserveAspectRatio="xMidYMid meet"
      height="2000"
      width="1500"
      xmlns="http://www.w3.org/2000/svg"
      xmlns:xlink="http://www.w3.org/1999/xlink"
    >
      <g
        id="tight-bounds"
        transform="matrix(1,0,0,1,0.0038473539797507783,0.4000000000000057)"
      >
        <svg
          viewBox="0 0 311.9923052920405 247.2"
          height="247.2"
          width="311.9923052920405"
        >
          <g>
            <svg
              viewBox="0 0 395.52 313.3812672350364"
              height="247.2"
              width="311.9923052920405"
            >
              <g transform="matrix(1,0,0,1,114.58443968686036,0)">
                <svg
                  viewBox="0 0 166.35112062627925 166.35112062627925"
                  height="166.35112062627925"
                  width="166.35112062627925"
                >
                  <g id="icon-0">
                    <svg
                      viewBox="0 0 166.35112062627925 166.35112062627925"
                      height="166.35112062627925"
                      width="166.35112062627925"
                    >
                      <g>
                        <path
                          transform="scale(1.66351,1.66351)"
                          d="M30 100c-16.569 0-30-13.431-30-30v-40c0-16.569 13.431-30 30-30h40c16.569 0 30 13.431 30 30v40c0 16.569-13.431 30-30 30z"
                          fill="#1b1a1a"
                          fill-rule="nonzero"
                          stroke="none"
                          stroke-width="1"
                          stroke-linecap="butt"
                          stroke-linejoin="miter"
                          stroke-miterlimit="10"
                          stroke-dasharray=""
                          stroke-dashoffset="0"
                          font-family="none"
                          font-weight="none"
                          font-size="none"
                          text-anchor="none"
                          style="mix-blend-mode: normal"
                          data-fill-palette-color="accent"
                        ></path>
                      </g>
                      <g
                        transform="matrix(1,0,0,1,50.05260087713191,33.270224125255844)"
                      >
                        <svg
                          viewBox="0 0 66.24591887201544 99.81067237576757"
                          height="99.81067237576757"
                          width="66.24591887201544"
                        >
                          <g>
                            <svg
                              xmlns="http://www.w3.org/2000/svg"
                              xmlns:xlink="http://www.w3.org/1999/xlink"
                              version="1.1"
                              x="0"
                              y="0"
                              viewBox="24.121 6.992999999999997 57.13000000000001 86.07600000000001"
                              enable-background="new 0 0 100 100"
                              xml:space="preserve"
                              height="99.81067237576757"
                              width="66.24591887201544"
                              class="icon-dxe-0"
                              data-fill-palette-color="quaternary"
                              id="dxe-0"
                            >
                              <g
                                fill="#ffffff"
                                data-fill-palette-color="quaternary"
                              >
                                <g
                                  fill="#ffffff"
                                  data-fill-palette-color="quaternary"
                                >
                                  <path
                                    d="M35.072 93.069H70.407C75.158 93.069 79.225 81.638 80.889 76.203H24.589C26.254 81.639 30.318 93.069 35.072 93.069"
                                    fill="#ffffff"
                                    data-fill-palette-color="quaternary"
                                  ></path>
                                  <path
                                    d="M24.23 69.52H81.251C79.894 63.668 75.556 59.388 70.408 59.388H56.93C56.707 50.401 55.674 43.748 54.289 38.831 54.358 38.836 54.424 38.852 54.491 38.852 59.164 38.852 62.956 35.062 62.956 30.389 62.956 27.11 61.068 24.298 58.341 22.891A8.4 8.4 0 0 0 59.965 17.945 8.46 8.46 0 0 0 51.503 9.483 8.42 8.42 0 0 0 45.679 11.827C44.318 8.976 41.43 6.993 38.062 6.993A8.465 8.465 0 0 0 29.597 15.456C29.597 17.172 30.116 18.762 30.996 20.097 27.082 20.845 24.121 24.269 24.121 28.399A8.467 8.467 0 0 0 32.585 36.864C33.45 36.864 34.271 36.694 35.059 36.451A8.3 8.3 0 0 0 34.825 38.358 8.464 8.464 0 0 0 43.288 46.821C46.704 46.821 49.626 44.786 50.965 41.873 51.989 46.173 52.755 51.873 52.948 59.39H35.072C29.924 59.388 25.588 63.667 24.23 69.52M44.065 37.092C38.068 37.003 33.271 32.133 33.358 26.213 33.443 20.29 38.376 15.561 44.376 15.648 50.376 15.733 55.173 20.604 55.086 26.527 55.005 32.447 50.067 37.179 44.065 37.092"
                                    fill="#ffffff"
                                    data-fill-palette-color="quaternary"
                                  ></path>
                                  <path
                                    d="M58.956 50.87C64.361 44.487 69.024 46.637 69.024 46.637 63.069 47.309 60.984 55.109 60.984 55.109 79.397 53.326 79.458 40.133 79.458 40.133 77.985 41.297 73.319 40.684 73.319 40.684 58.591 40.865 58.956 50.87 58.956 50.87"
                                    fill="#ffffff"
                                    data-fill-palette-color="quaternary"
                                  ></path>
                                  <path
                                    d="M47.138 26.489C46.876 26.219 46.535 25.992 46.115 25.801 45.894 25.704 45.443 25.566 44.761 25.388L44.816 21.52C45.256 21.617 45.602 21.804 45.852 22.089 46.105 22.372 46.263 22.782 46.339 23.311L47.75 23.121C47.639 22.267 47.292 21.598 46.703 21.1 46.245 20.712 45.623 20.476 44.831 20.387L44.841 19.747 44.043 19.732 44.033 20.378C43.13 20.452 42.447 20.687 41.982 21.077 41.287 21.659 40.935 22.426 40.924 23.381A2.9 2.9 0 0 0 41.254 24.822C41.482 25.25 41.809 25.584 42.241 25.829 42.82 26.16 43.388 26.383 43.945 26.494L43.882 30.762C43.352 30.699 42.894 30.428 42.521 29.946 42.257 29.605 42.079 29.073 41.982 28.351L40.614 28.586C40.653 29.281 40.824 29.872 41.129 30.359 41.431 30.846 41.796 31.2 42.217 31.422S43.19 31.801 43.867 31.897L43.846 33.24 44.647 33.25 44.668 31.892C45.62 31.863 46.402 31.543 47.008 30.928 47.618 30.315 47.926 29.543 47.941 28.616A3.1 3.1 0 0 0 47.742 27.436 2.6 2.6 0 0 0 47.138 26.489M43.964 25.206C43.348 25.013 42.909 24.76 42.654 24.446 42.403 24.137 42.278 23.752 42.283 23.294 42.29 22.833 42.446 22.438 42.755 22.101 43.067 21.768 43.487 21.564 44.016 21.493zM46.003 30.117A2 2 0 0 1 44.683 30.774L44.742 26.691C45.466 26.937 45.952 27.208 46.19 27.507 46.434 27.807 46.546 28.197 46.542 28.684 46.535 29.256 46.354 29.733 46.003 30.117"
                                    fill="#ffffff"
                                    data-fill-palette-color="quaternary"
                                  ></path>
                                </g>
                              </g>
                            </svg>
                          </g>
                        </svg>
                      </g>
                    </svg>
                  </g>
                </svg>
              </g>
              <g></g>
            </svg>
          </g>
          <defs></defs>
        </svg>
        <rect
          width="311.9923052920405"
          height="247.2"
          fill="none"
          stroke="none"
          visibility="hidden"
        ></rect>
      </g>
    </svg>
  </g>
</svg>
