<svg
  xmlns="http://www.w3.org/2000/svg"
  version="1.1"
  xmlns:xlink="http://www.w3.org/1999/xlink"
  xmlns:svgjs="http://svgjs.dev/svgjs"
  width="2000"
  height="2250"
  viewBox="0 0 2000 2250"
>
  <g transform="matrix(1,0,0,1,0,0)">
    <svg
      viewBox="0 0 320 360"
      data-background-color="#ffffff"
      preserveAspectRatio="xMidYMid meet"
      height="2250"
      width="2000"
      xmlns="http://www.w3.org/2000/svg"
      xmlns:xlink="http://www.w3.org/1999/xlink"
    >
      <g id="tight-bounds" transform="matrix(1,0,0,1,0,0)">
        <svg viewBox="0 0 320 360" height="360" width="320">
          <g><svg></svg></g>
          <g>
            <svg viewBox="0 0 320 360" height="360" width="320">
              <g>
                <path
                  d="M219.58 41.008c0.707 0 6.365 2.829 9.547 3.89-1.061 0.354-3.536-0.707-6.365-1.768 0.707 0 2.122 0.354 3.536 1.06-0.707-0.707-6.011-2.475-6.718-3.182M166.895 30.047c1.061-0.354 13.436 1.414 19.094 1.768 0.354-0.354-0.707-0.354-2.122-0.707 1.768-0.354 5.304 0.707 7.779 1.06-7.425 0.354-15.558-1.768-22.629-1.06-2.475 0-0.707-0.707-2.122-1.061M156.641 30.047c6.365 0 11.315 0 2.121 0.707-1.061-0.354-2.475-0.354-2.121-0.707M256.707 59.395c0.707 0 3.536 3.182 4.95 4.243-0.354 0.354-3.182-2.475-4.596-3.536 0.354 0.354 0 0-0.354-0.707M249.635 54.798c-2.829-2.475-3.889-2.475-4.243-3.889 2.475 1.414 4.243 2.829 4.243 3.889M204.022 32.522c0.354-0.354 1.061 0.354 2.829 0.707-2.122-0.354-1.768 0-1.061 0.707-2.475-0.354-3.182-0.707-2.475-1.414 1.414 0.707 1.768 0.354 0.707 0M103.602 36.765c0-0.354 1.414-1.061 2.475-1.414-1.061 0.707-0.707 1.061 1.061 0.353 0 0.354-2.122 1.061-3.536 1.768 0.707-0.354 1.414-1.414 0-0.707M211.094 28.986c-1.061 0.354-4.95-1.768-8.84-2.475-2.122-0.707 8.486 1.768 8.84 2.475M2.475 203.66c2.122 8.84 0.707 8.486 0 0M2.829 150.621c0.354-1.414 0.707-5.304 1.06-4.95-1.061 8.486-2.829 12.376-3.182 18.74 1.061-5.657-0.354 3.182-0.707 5.304 0.354 2.829 0.354-1.768 1.061-1.06 0.707 1.061-1.414 15.912-0.707 7.779-0.707 7.425 0 15.558 1.414 17.679-1.768 11.315 7.072 36.773 8.84 42.077 0.354 0.354 0-1.768 0.707-0.353 0.707 4.597 3.889 7.779 4.95 12.729 1.061 1.414 5.304 9.193 6.011 10.962 1.414 2.829 2.122 2.475 3.536 5.303 4.243 8.133 10.961 15.912 17.326 23.337 20.508 24.044 51.978 43.845 86.984 50.918 35.006 7.425 71.779 2.122 100.419-11.669 1.768-1.061 1.414-1.414 3.536-2.122 9.901-3.182 21.923-13.436 28.641-17.326 3.182-3.536 11.669-9.547 12.73-13.082 6.011-4.95 12.022-13.083 15.204-18.387 1.768-2.829 3.182-2.829 3.889-4.597-0.354 0 5.657-7.425 7.426-11.668-0.707 0-1.768 2.122-1.768 0 12.729-24.398 19.801-57.282 15.911-79.912 0.707 27.934-6.365 59.05-19.801 78.851-6.011 12.729-18.387 26.519-29.701 36.42-1.768 1.768-3.536 3.889-5.658 5.304-6.718 5.657-14.144 10.254-21.922 14.497-18.387 10.254-38.895 19.094-62.94 19.447 41.37-3.536 78.497-24.398 99.006-49.856-15.558 15.204-22.276 21.215-39.602 30.055-1.414 2.475-13.083 7.425-20.862 9.547 4.597-2.122 14.144-5.657 17.326-8.486-25.812 12.376-54.453 19.448-81.326 15.558 10.254 0 24.751 0.354 38.541-2.121 2.122-0.707 3.182-1.414 5.658-1.768 26.873-6.011 52.685-19.094 71.072-37.481-10.608 9.547-26.519 20.862-36.774 24.398 9.547-5.304 26.873-15.558 32.53-23.337-11.315 11.315-32.53 22.63-45.966 27.58-2.122 0.354 1.414-1.414-2.122 0-4.243 1.061-2.475 1.061-3.536 1.768-16.265 4.597-35.006 8.486-50.563 7.072-2.829-0.354-3.889-1.061-6.365-1.061-2.829-0.354-5.304-0.354-8.486-0.354-12.376-1.414-25.812-6.365-35.713-10.607-5.304-2.475-10.608-4.243-15.912-7.426-4.243-2.475-7.779-5.304-11.314-8.132-13.436-9.901-24.751-19.801-35.36-33.945-19.094-26.519-28.994-59.757-27.58-92.641 1.414-32.884 14.497-65.061 35.359-88.752-1.061 1.061 1.414-2.475 3.536-4.596 0 0.707-0.354 1.768 2.122-0.707 2.122-2.475-0.707-0.707 0.353-2.122 21.923-24.044 60.111-43.492 99.36-44.199 1.414-1.061 3.889-2.475 6.718-1.768 0 0.354-1.768 0.354-1.768 0.354 3.889-0.354 7.425-0.354 9.193 0.353 0.354-0.354-1.414-0.707 0-0.707 2.475 0.707 3.182 0 4.597 0.707-1.061 0-2.122 0-2.829 0.354 8.84 0 14.497 2.122 23.337 2.829-4.597-1.061-5.657-1.061-9.193-2.122 3.889 0.707 5.657 1.414 7.425 1.061-0.707 0-0.354-1.061 0.354-0.707 7.072 1.768 7.779 2.475 15.204 4.95 0.707-0.707-3.182-1.061-4.243-2.122 7.072 2.475 13.436 4.243 17.68 7.072-1.414-1.061-5.657-2.475-8.84-3.889-0.354 0.354 1.061 0.707 1.414 1.414-3.536-1.768-8.486-3.536-13.436-4.243 4.243 1.061 7.072 2.475 8.84 3.182-3.889-0.707-8.84-3.182-14.498-4.243 9.193 2.829 26.519 9.193 37.127 14.851-3.889-2.475-8.486-4.243-10.961-5.657 2.122 0.354 4.597 1.768 4.597 1.06 2.475 1.061 5.657 3.536 7.425 3.89-3.182-2.122-9.547-5.304-11.668-6.365 26.519 12.022 50.21 32.177 65.414 57.989 1.414 2.475 3.536 8.133 5.304 8.84-0.354-1.768-1.768-2.829-3.182-5.657 0.707 0 0.707-1.061 0-2.122-1.414-1.768 0 1.414-1.415-0.354-6.365-11.669-14.144-21.923-26.165-33.237 6.718 6.365 1.768 1.768 0.353-0.354 9.193 8.133 19.801 21.923 24.398 28.995-0.707-1.061-1.061-1.768-0.707-1.768 8.486 14.497 13.79 27.58 19.094 46.32 0.354 0.354 0-1.414 0.707-0.353 3.536 14.851 4.597 27.227 4.243 38.541 2.829-19.094-3.536-48.796-14.851-72.133-1.414-2.829-1.414-0.707-2.829-3.889 0-1.061-1.061-3.182-1.768-4.597-14.144-23.337-31.47-39.956-51.978-53.038 1.414 0.707 4.243 2.829 4.244 2.475-38.188-25.105-82.387-28.641-118.807-20.862-2.475 1.061-3.536 2.122-6.365 3.536 5.304-1.768 8.486-2.122 13.437-3.183 1.061-1.061-4.597 0.354-2.122-0.707 0.354 0.354 4.95-0.707 6.011-0.353 0 0.354-1.414 0.707-1.768 1.06 11.669-2.475 23.691-2.829 33.945-2.121-6.011 0.354-16.972-0.707-20.508 1.061 3.536-0.354 8.486-0.707 11.668-0.354-4.243 0-12.022 0.354-15.558 0.707-0.354-0.354 5.657-1.061 1.768-1.06-1.768 0.354-4.597 0.354-5.657 1.414-30.409 2.829-60.111 18.74-80.973 37.481-4.243 3.536-9.193 7.425-12.375 11.314-7.779 8.84-12.729 17.68-18.387 25.459 3.536-7.425 11.315-18.74 20.508-28.287 9.193-9.547 19.094-17.68 24.398-21.923 0 1.414 8.486-5.304 11.669-7.425-2.122 1.768 1.414-0.707 2.121-0.354 11.315-6.718 20.508-9.193 30.763-13.083-2.475 0.707-4.597 1.414-4.951 1.061 2.475-0.707 3.889-1.414 3.536-1.768-9.901 2.829-25.459 9.547-37.834 16.972 22.276-15.204 50.564-24.398 78.497-24.751 27.934-0.707 55.16 6.365 76.729 17.68 14.497 6.365 28.287 18.033 39.249 29.348 3.182 2.829 0.707-0.707 5.304 4.243-1.414-0.707-2.475-1.414-0.707 0.707 2.829 3.182-0.707-2.475 3.889 3.182-0.354 0-1.768-1.768-1.768-1.061 12.376 10.961 21.923 30.762 27.58 43.846-1.414-5.304-4.95-12.729-7.779-18.033 8.486 15.558 11.315 24.751 14.851 38.541 1.414 1.061-0.707-4.95 0.707-2.121 0.354 2.122 0.707 8.84 2.122 9.9-1.061-6.718-2.829-14.851-4.243-16.265 1.061 0.707-1.768-8.133-3.536-10.254-0.707-5.657-5.657-15.558-9.901-22.984-15.204-29.702-42.431-54.099-72.839-67.536 0-0.707-1.768-1.414-2.476-2.121-30.055-12.729-66.122-16.265-100.773-8.133-35.006 8.486-67.889 28.641-91.227 57.636 1.061-3.536 9.901-10.254 10.255-13.083-10.254 10.961-21.215 25.459-28.641 41.016-7.779 15.558-12.022 31.47-13.79 43.138"
                  fill="currentColor"
                  fill-rule="nonzero"
                  stroke="none"
                  stroke-width="1"
                  stroke-linecap="butt"
                  stroke-linejoin="miter"
                  stroke-miterlimit="10"
                  stroke-dasharray=""
                  stroke-dashoffset="0"
                  font-family="none"
                  font-weight="none"
                  font-size="none"
                  text-anchor="none"
                  style="mix-blend-mode: normal"
                  data-fill-palette-color="tertiary"
                ></path>
              </g>
              <g transform="matrix(1,0,0,1,48,146.9243445692884)">
                <svg
                  viewBox="0 0 224 66.15131086142323"
                  height="66.15131086142323"
                  width="224"
                >
                  <g>
                    <svg
                      viewBox="0 0 224 66.15131086142323"
                      height="66.15131086142323"
                      width="224"
                    >
                      <g>
                        <svg
                          viewBox="0 0 224 66.15131086142323"
                          height="66.15131086142323"
                          width="224"
                        >
                          <g id="textblocktransform">
                            <svg
                              viewBox="0 0 224 66.15131086142323"
                              height="66.15131086142323"
                              width="224"
                              id="textblock"
                            >
                              <g>
                                <svg
                                  viewBox="0 0 224 66.15131086142323"
                                  height="66.15131086142323"
                                  width="224"
                                >
                                  <g transform="matrix(1,0,0,1,0,0)">
                                    <svg
                                      width="224"
                                      viewBox="2.1 -36.41 160.19 47.31"
                                      height="66.15131086142323"
                                      data-palette-color="#0083ce"
                                    >
                                      <path
                                        d="M3 0.15L3 0.15Q2.55 0.15 2.33-0.2 2.1-0.55 2.1-0.95L2.1-0.95Q2.15-1.8 2.53-1.9 2.9-2 3.4-2L3.4-2Q5-2 5.65-2.58 6.3-3.15 6.48-4.03 6.65-4.9 6.65-5.85L6.65-5.85 6.65-25.7Q6.65-26.65 6.48-27.53 6.3-28.4 5.65-28.98 5-29.55 3.4-29.55L3.4-29.55Q2.9-29.55 2.53-29.65 2.15-29.75 2.1-30.6L2.1-30.6Q2.1-31 2.33-31.35 2.55-31.7 3-31.7L3-31.7Q4.6-31.65 6.05-31.6 7.5-31.55 9-31.55L9-31.55 16.5-31.55Q17.45-31.55 18.98-31.4 20.5-31.25 22.23-30.8 23.95-30.35 25.5-29.35 27.05-28.35 28.03-26.7 29-25.05 29-22.55L29-22.55Q29-20.2 27.93-18.3 26.85-16.4 25.08-15.05 23.3-13.7 21.08-12.98 18.85-12.25 16.55-12.25L16.55-12.25Q15.45-12.25 14.15-12.4 12.85-12.55 11.55-13.05L11.55-13.05 11.55-5.85Q11.6-4.9 11.75-4.03 11.9-3.15 12.58-2.58 13.25-2 14.8-2L14.8-2Q15.35-2 15.7-1.9 16.05-1.8 16.1-0.95L16.1-0.95Q16.1-0.55 15.88-0.2 15.65 0.15 15.2 0.15L15.2 0.15Q12 0 8.95 0L8.95 0Q7.45 0 6.03 0.03 4.6 0.05 3 0.15ZM15.1-14.5L15.1-14.5Q16.25-14.5 17.68-14.88 19.1-15.25 20.43-16.13 21.75-17 22.6-18.53 23.45-20.05 23.45-22.4L23.45-22.4Q23.45-24.95 22.45-26.43 21.45-27.9 19.98-28.6 18.5-29.3 17.05-29.5 15.6-29.7 14.7-29.7L14.7-29.7Q13.5-29.7 12.8-29.45 12.1-29.2 11.83-28.38 11.55-27.55 11.55-25.85L11.55-25.85 11.55-15.05Q12.05-14.85 13-14.68 13.95-14.5 15.1-14.5ZM35 10.9L35 10.9Q33.55 10.9 32.27 10.25 31 9.6 30.25 8.53 29.5 7.45 29.5 6.2L29.5 6.2Q29.55 4.85 30.07 4.13 30.6 3.4 31.25 3.13 31.9 2.85 32.35 2.8 32.8 2.75 32.7 2.75L32.7 2.75Q33.65 2.75 34.15 3.13 34.65 3.5 34.65 3.75L34.65 3.75Q34.65 3.85 34.27 4.23 33.9 4.6 33.85 5.55L33.85 5.55Q33.8 6.45 34.4 7.3 35 8.15 36.25 8.15L36.25 8.15Q37.65 8.15 38.8 7.13 39.95 6.1 40.85 4.6 41.75 3.1 42.4 1.7L42.4 1.7Q42.75 0.6 42.35-0.6L42.35-0.6Q41.15-3.3 40-6.35 38.85-9.4 37.77-12.25 36.7-15.1 35.65-17.25L35.65-17.25Q34.85-19.1 34.1-19.88 33.35-20.65 31.85-20.85L31.85-20.85Q31.2-20.95 30.97-21.05 30.75-21.15 30.7-21.8L30.7-21.8Q30.65-22.65 31.17-22.73 31.7-22.8 32.45-22.85L32.45-22.85Q35.55-23 37.3-21.95 39.05-20.9 40.15-18.4L40.15-18.4Q40.85-16.85 41.7-14.55 42.55-12.25 43.5-9.9 44.45-7.55 45.35-5.65L45.35-5.65 45.5-5.65 50.4-18.75Q50.9-20.2 50.45-20.55 50-20.9 48.5-20.9L48.5-20.9Q48.05-20.9 47.75-20.98 47.45-21.05 47.4-21.8L47.4-21.8Q47.4-22.1 47.57-22.45 47.75-22.8 48.1-22.8L48.1-22.8Q49.55-22.75 50.6-22.7 51.65-22.65 52.95-22.65L52.95-22.65Q53.85-22.65 54.4-22.68 54.95-22.7 55.55-22.73 56.15-22.75 57.1-22.8L57.1-22.8Q57.5-22.8 57.67-22.45 57.85-22.1 57.85-21.8L57.85-21.8Q57.8-21.05 57.47-20.98 57.15-20.9 56.75-20.9L56.75-20.9Q55.1-20.9 54.12-20.3 53.15-19.7 52.45-17.95L52.45-17.95Q52.45-17.95 51.92-16.65 51.4-15.35 50.55-13.25 49.7-11.15 48.75-8.83 47.8-6.5 46.95-4.4 46.1-2.3 45.55-0.95 45 0.4 44.95 0.5L44.95 0.5Q44.3 2.05 43.37 3.88 42.45 5.7 41.22 7.28 40 8.85 38.45 9.88 36.9 10.9 35 10.9ZM71.05 1L71.05 1Q65.84 1 63.05-0.83 60.25-2.65 60.25-6.2L60.25-6.2Q60.25-8 61.47-9.18 62.7-10.35 64.64-10.35L64.64-10.35Q65.95-10.3 66.47-9.7 67-9.1 67-8.8L67-8.8Q67-8.7 66.55-8.47 66.09-8.25 65.64-7.68 65.2-7.1 65.2-5.9L65.2-5.9Q65.2-3.65 66.59-2.33 68-1 71.05-1L71.05-1Q73.2-1 74.72-1.83 76.25-2.65 77.05-3.98 77.84-5.3 77.84-6.7L77.84-6.7Q77.84-8.8 76.65-10.15 75.45-11.5 73.52-12.48 71.59-13.45 69.45-14.35 67.3-15.25 65.37-16.4 63.45-17.55 62.2-19.28 60.95-21 60.9-23.6L60.9-23.6Q60.84-26.75 62.25-28.73 63.65-30.7 66.14-31.63 68.65-32.55 71.7-32.55L71.7-32.55Q73.95-32.55 76.12-31.9 78.3-31.25 79.72-29.88 81.15-28.5 81.15-26.25L81.15-26.25Q81.15-24.45 79.92-23.28 78.7-22.1 76.75-22.1L76.75-22.1Q75.45-22.2 74.92-22.78 74.4-23.35 74.4-23.65L74.4-23.65Q74.4-23.8 75-24.03 75.59-24.25 76.2-24.83 76.8-25.4 76.8-26.55L76.8-26.55Q76.8-28.45 75.34-29.48 73.9-30.5 71.75-30.5L71.75-30.5Q68.5-30.5 67.02-28.98 65.55-27.45 65.55-25.55L65.55-25.55Q65.55-23.7 66.55-22.55 67.55-21.4 69.55-20.3L69.55-20.3Q71.8-19.1 74.09-18.07 76.4-17.05 78.37-15.8 80.34-14.55 81.55-12.68 82.75-10.8 82.75-7.85L82.75-7.85Q82.75-5.3 81.17-3.3 79.59-1.3 76.95-0.15 74.3 1 71.05 1ZM96.34 0.6L96.34 0.6Q92.94 0.6 90.94-1.45 88.94-3.5 88.94-6.85L88.94-6.85 88.94-16.1Q88.94-17 88.87-17.78 88.79-18.55 88.29-19.03 87.79-19.5 86.39-19.5L86.39-19.5Q85.94-19.5 85.57-19.63 85.19-19.75 85.19-20.5L85.19-20.5Q85.19-21.25 85.99-21.4L85.99-21.4Q88.29-21.75 89.52-22.1 90.74-22.45 91.39-22.7 92.04-22.95 92.54-23L92.54-23Q92.94-23.05 93.22-22.85 93.49-22.65 93.49-22.05L93.49-22.05 93.49-6.9Q93.49-5.25 94.22-4.2 94.94-3.15 96.04-2.65 97.14-2.15 98.29-2.15L98.29-2.15Q100.04-2.15 101.34-2.78 102.64-3.4 103.44-4.23 104.24-5.05 104.49-5.6L104.49-5.6 104.49-16.1Q104.49-17 104.42-17.78 104.34-18.55 103.84-19.03 103.34-19.5 101.94-19.5L101.94-19.5Q101.49-19.5 101.12-19.63 100.74-19.75 100.74-20.5L100.74-20.5Q100.74-21.25 101.54-21.4L101.54-21.4Q103.84-21.75 105.07-22.1 106.29-22.45 106.94-22.7 107.59-22.95 108.09-23L108.09-23Q108.49-23.05 108.77-22.85 109.04-22.65 109.04-22.05L109.04-22.05 109.04-4.75Q109.04-1.8 112.99-1.8L112.99-1.8Q113.54-1.8 113.69-1.5 113.84-1.2 113.84-0.85L113.84-0.85Q113.84-0.15 112.99 0L112.99 0 104.94 0.55Q104.59 0.55 104.54 0.25 104.49-0.05 104.49-0.45L104.49-0.45 104.49-3.25 104.39-3.25Q103.44-2.35 102.37-1.45 101.29-0.55 99.87 0.03 98.44 0.6 96.34 0.6ZM118.99 0.7L118.99 0.7Q118.54 0.7 118.29 0.4 118.04 0.1 118.04-0.3L118.04-0.3 118.04-29.5Q118.04-30.4 117.97-31.18 117.89-31.95 117.39-32.43 116.89-32.9 115.49-32.9L115.49-32.9Q115.04-32.9 114.67-33.02 114.29-33.15 114.29-33.9L114.29-33.9Q114.29-34.65 115.09-34.8L115.09-34.8Q117.39-35.15 118.61-35.5 119.84-35.85 120.49-36.1 121.14-36.35 121.64-36.4L121.64-36.4Q122.04-36.45 122.31-36.25 122.59-36.05 122.59-35.45L122.59-35.45 122.59-20.35 122.74-20.35Q124.24-21.85 126.09-22.55 127.94-23.25 129.64-23.25L129.64-23.25Q132.59-23.25 134.97-21.75 137.34-20.25 138.74-17.63 140.14-15 140.14-11.5L140.14-11.5Q140.14-8.1 138.54-5.35 136.94-2.6 134.34-1 131.74 0.6 128.69 0.6L128.69 0.6Q124.24 0.6 120.99-1.85L120.99-1.85 120.74-1.85Q120.39-1.1 120.06-0.2 119.74 0.7 118.99 0.7ZM128.24-1.1L128.24-1.1Q131.24-1.1 133.14-3.85 135.04-6.6 135.04-11.3L135.04-11.3Q135.04-13.65 134.31-15.8 133.59-17.95 132.01-19.35 130.44-20.75 127.89-20.75L127.89-20.75Q126.19-20.75 124.89-20.15 123.59-19.55 122.59-18.45L122.59-18.45 122.59-5.25Q122.74-4.55 123.42-3.58 124.09-2.6 125.29-1.85 126.49-1.1 128.24-1.1ZM153.09 0.6L153.09 0.6Q149.24 0.6 146.66-0.78 144.09-2.15 144.09-4.75L144.09-4.75Q144.09-6.2 144.96-7.1 145.84-8 147.24-8L147.24-8Q148.14-8 148.71-7.53 149.29-7.05 149.29-6.85L149.29-6.85Q149.29-6.7 148.71-6.18 148.14-5.65 148.14-4.5L148.14-4.5Q148.14-3.1 149.46-2.18 150.79-1.25 153.49-1.25L153.49-1.25Q155.84-1.25 157.16-2.27 158.49-3.3 158.49-5.15L158.49-5.15Q158.49-6.65 157.51-7.48 156.54-8.3 155.01-8.8 153.49-9.3 151.76-9.8 150.04-10.3 148.49-11.05 146.94-11.8 145.96-13.13 144.99-14.45 144.99-16.65L144.99-16.65Q144.99-18.9 146.34-20.35 147.69-21.8 149.79-22.53 151.89-23.25 154.04-23.25L154.04-23.25Q155.89-23.25 157.54-22.73 159.19-22.2 160.26-21.15 161.34-20.1 161.34-18.5L161.34-18.5Q161.34-17.25 160.54-16.25 159.74-15.25 158.34-15.25L158.34-15.25Q157.44-15.25 156.86-15.73 156.29-16.2 156.29-16.4L156.29-16.4Q156.29-16.5 156.66-16.78 157.04-17.05 157.39-17.53 157.74-18 157.74-18.75L157.74-18.75Q157.64-20.2 156.34-20.9 155.04-21.6 153.44-21.6L153.44-21.6Q151.69-21.6 150.19-20.75 148.69-19.9 148.69-18.3L148.69-18.3Q148.69-16.85 149.31-16.05 149.94-15.25 151.31-14.68 152.69-14.1 154.89-13.4L154.89-13.4Q157.09-12.7 158.76-11.95 160.44-11.2 161.36-9.98 162.29-8.75 162.29-6.65L162.29-6.65Q162.29-4.55 161.09-2.9 159.89-1.25 157.81-0.33 155.74 0.6 153.09 0.6Z"
                                        opacity="1"
                                        transform="matrix(1,0,0,1,0,0)"
                                        fill="currentColor"
                                        class="wordmark-text-0"
                                        data-fill-palette-color="primary"
                                        id="text-0"
                                      ></path>
                                    </svg>
                                  </g>
                                </svg>
                              </g>
                            </svg>
                          </g>
                        </svg>
                      </g>
                      <g></g>
                    </svg>
                  </g>
                </svg>
              </g>
            </svg>
          </g>
          <defs></defs>
        </svg>
        <rect
          width="320"
          height="360"
          fill="none"
          stroke="none"
          visibility="hidden"
        ></rect>
      </g>
    </svg>
  </g>
</svg>
